<mxfile host="Electron" modified="2023-07-05T18:28:21.713Z" agent="Mozilla/5.0 (Windows NT 10.0; Win64; x64) AppleWebKit/537.36 (KHTML, like Gecko) draw.io/21.5.1 Chrome/112.0.5615.204 Electron/24.6.0 Safari/537.36" etag="n-1TLSxy38ixAdI_gPsL" version="21.5.1" type="device" pages="3">
  <diagram name="Ultra High Level Architecture Overview" id="41GNN0v2DLa7nzetCiMy">
    <mxGraphModel dx="1434" dy="836" grid="1" gridSize="10" guides="1" tooltips="1" connect="1" arrows="1" fold="1" page="1" pageScale="1" pageWidth="1169" pageHeight="827" background="none" math="0" shadow="0">
      <root>
        <mxCell id="0" />
        <mxCell id="1" parent="0" />
        <mxCell id="CofeB_WBe9oteIBys9ix-12" value="&lt;h1 style=&quot;border-color: var(--border-color); font-family: Helvetica; text-align: left; font-size: 32px;&quot;&gt;Ultra High Level Architecture Overview&lt;/h1&gt;" style="swimlane;whiteSpace=wrap;html=1;hachureGap=4;fontFamily=Architects Daughter;fontSource=https%3A%2F%2Ffonts.googleapis.com%2Fcss%3Ffamily%3DArchitects%2BDaughter;fontSize=20;startSize=60;glass=0;" parent="1" vertex="1">
          <mxGeometry x="40" y="40" width="1080" height="760" as="geometry" />
        </mxCell>
        <mxCell id="CofeB_WBe9oteIBys9ix-9" value="Web Services" style="swimlane;whiteSpace=wrap;html=1;hachureGap=4;fontFamily=Architects Daughter;fontSource=https%3A%2F%2Ffonts.googleapis.com%2Fcss%3Ffamily%3DArchitects%2BDaughter;fontSize=20;swimlaneLine=1;rounded=1;" parent="CofeB_WBe9oteIBys9ix-12" vertex="1">
          <mxGeometry x="80" y="160" width="350" height="560" as="geometry">
            <mxRectangle x="80" y="160" width="120" height="40" as="alternateBounds" />
          </mxGeometry>
        </mxCell>
        <mxCell id="CofeB_WBe9oteIBys9ix-17" value="`docs.arolariu.ro` service domain" style="html=1;whiteSpace=wrap;container=1;recursiveResize=0;collapsible=0;hachureGap=4;fontFamily=Architects Daughter;fontSource=https%3A%2F%2Ffonts.googleapis.com%2Fcss%3Ffamily%3DArchitects%2BDaughter;fontSize=20;glass=0;" parent="CofeB_WBe9oteIBys9ix-9" vertex="1">
          <mxGeometry x="10" y="240" width="330" height="70" as="geometry" />
        </mxCell>
        <mxCell id="CofeB_WBe9oteIBys9ix-21" value="`about.arolariu.ro` service domain" style="html=1;whiteSpace=wrap;container=1;recursiveResize=0;collapsible=0;hachureGap=4;fontFamily=Architects Daughter;fontSource=https%3A%2F%2Ffonts.googleapis.com%2Fcss%3Ffamily%3DArchitects%2BDaughter;fontSize=20;glass=0;" parent="CofeB_WBe9oteIBys9ix-9" vertex="1">
          <mxGeometry x="10" y="320" width="330" height="70" as="geometry" />
        </mxCell>
        <mxCell id="CofeB_WBe9oteIBys9ix-22" value="`itc.arolariu.ro` service domain" style="html=1;whiteSpace=wrap;container=1;recursiveResize=0;collapsible=0;hachureGap=4;fontFamily=Architects Daughter;fontSource=https%3A%2F%2Ffonts.googleapis.com%2Fcss%3Ffamily%3DArchitects%2BDaughter;fontSize=20;glass=0;" parent="CofeB_WBe9oteIBys9ix-9" vertex="1">
          <mxGeometry x="10" y="400" width="330" height="70" as="geometry" />
        </mxCell>
        <mxCell id="CofeB_WBe9oteIBys9ix-23" value="`cv.arolariu.ro` service domain" style="html=1;whiteSpace=wrap;container=1;recursiveResize=0;collapsible=0;hachureGap=4;fontFamily=Architects Daughter;fontSource=https%3A%2F%2Ffonts.googleapis.com%2Fcss%3Ffamily%3DArchitects%2BDaughter;fontSize=20;glass=0;" parent="CofeB_WBe9oteIBys9ix-9" vertex="1">
          <mxGeometry x="10" y="480" width="330" height="70" as="geometry" />
        </mxCell>
        <mxCell id="CofeB_WBe9oteIBys9ix-32" value="`&lt;b&gt;arolariu.ro&lt;/b&gt;` service domain" style="html=1;whiteSpace=wrap;container=1;recursiveResize=0;collapsible=0;hachureGap=4;fontFamily=Architects Daughter;fontSource=https%3A%2F%2Ffonts.googleapis.com%2Fcss%3Ffamily%3DArchitects%2BDaughter;fontSize=20;glass=0;" parent="CofeB_WBe9oteIBys9ix-9" vertex="1">
          <mxGeometry x="10" y="40" width="330" height="70" as="geometry" />
        </mxCell>
        <mxCell id="CofeB_WBe9oteIBys9ix-15" value="`api.arolariu.ro` service domain" style="whiteSpace=wrap;container=1;recursiveResize=0;collapsible=0;hachureGap=4;fontFamily=Architects Daughter;fontSource=https%3A%2F%2Ffonts.googleapis.com%2Fcss%3Ffamily%3DArchitects%2BDaughter;fontSize=20;glass=0;spacingRight=0;spacing=2;labelBackgroundColor=none;labelBorderColor=none;verticalAlign=middle;html=1;spacingTop=0;spacingLeft=0;" parent="CofeB_WBe9oteIBys9ix-9" vertex="1">
          <mxGeometry x="10" y="160" width="330" height="70" as="geometry" />
        </mxCell>
        <mxCell id="CofeB_WBe9oteIBys9ix-13" value="General Workers" style="swimlane;whiteSpace=wrap;html=1;hachureGap=4;fontFamily=Architects Daughter;fontSource=https%3A%2F%2Ffonts.googleapis.com%2Fcss%3Ffamily%3DArchitects%2BDaughter;fontSize=20;rounded=1;" parent="CofeB_WBe9oteIBys9ix-12" vertex="1">
          <mxGeometry x="650" y="160" width="350" height="560" as="geometry" />
        </mxCell>
        <mxCell id="CofeB_WBe9oteIBys9ix-33" value="Discord.JS Worker (Bot)" style="html=1;whiteSpace=wrap;container=1;recursiveResize=0;collapsible=0;hachureGap=4;fontFamily=Architects Daughter;fontSource=https%3A%2F%2Ffonts.googleapis.com%2Fcss%3Ffamily%3DArchitects%2BDaughter;fontSize=20;glass=0;" parent="CofeB_WBe9oteIBys9ix-13" vertex="1">
          <mxGeometry x="10" y="40" width="330" height="70" as="geometry" />
        </mxCell>
        <mxCell id="CofeB_WBe9oteIBys9ix-34" value="CI/CD Test Worker" style="html=1;whiteSpace=wrap;container=1;recursiveResize=0;collapsible=0;hachureGap=4;fontFamily=Architects Daughter;fontSource=https%3A%2F%2Ffonts.googleapis.com%2Fcss%3Ffamily%3DArchitects%2BDaughter;fontSize=20;glass=0;" parent="CofeB_WBe9oteIBys9ix-13" vertex="1">
          <mxGeometry x="10" y="150" width="330" height="70" as="geometry" />
        </mxCell>
        <mxCell id="CofeB_WBe9oteIBys9ix-35" value="Telemetry Worker" style="html=1;whiteSpace=wrap;container=1;recursiveResize=0;collapsible=0;hachureGap=4;fontFamily=Architects Daughter;fontSource=https%3A%2F%2Ffonts.googleapis.com%2Fcss%3Ffamily%3DArchitects%2BDaughter;fontSize=20;glass=0;" parent="CofeB_WBe9oteIBys9ix-13" vertex="1">
          <mxGeometry x="10" y="260" width="330" height="70" as="geometry" />
        </mxCell>
        <mxCell id="CofeB_WBe9oteIBys9ix-36" value="Platform Maintenance Worker" style="html=1;whiteSpace=wrap;container=1;recursiveResize=0;collapsible=0;hachureGap=4;fontFamily=Architects Daughter;fontSource=https%3A%2F%2Ffonts.googleapis.com%2Fcss%3Ffamily%3DArchitects%2BDaughter;fontSize=20;glass=0;" parent="CofeB_WBe9oteIBys9ix-13" vertex="1">
          <mxGeometry x="10" y="370" width="330" height="70" as="geometry" />
        </mxCell>
        <mxCell id="CofeB_WBe9oteIBys9ix-37" value="Platform Maintenance Worker" style="html=1;whiteSpace=wrap;container=1;recursiveResize=0;collapsible=0;hachureGap=4;fontFamily=Architects Daughter;fontSource=https%3A%2F%2Ffonts.googleapis.com%2Fcss%3Ffamily%3DArchitects%2BDaughter;fontSize=20;glass=0;" parent="CofeB_WBe9oteIBys9ix-13" vertex="1">
          <mxGeometry x="10" y="480" width="330" height="70" as="geometry" />
        </mxCell>
      </root>
    </mxGraphModel>
  </diagram>
  <diagram id="UaQVI12QEUTXzkRJOKp0" name="Web Services High Level Architecture Overview">
    <mxGraphModel dx="2607" dy="1520" grid="1" gridSize="10" guides="1" tooltips="1" connect="1" arrows="1" fold="1" page="1" pageScale="1" pageWidth="850" pageHeight="1100" math="0" shadow="0">
      <root>
        <mxCell id="0" />
        <mxCell id="1" parent="0" />
        <mxCell id="inQ-PklXOitGRCfpAnr--1" value="Web Services" style="swimlane;whiteSpace=wrap;html=1;hachureGap=4;fontFamily=Architects Daughter;fontSource=https%3A%2F%2Ffonts.googleapis.com%2Fcss%3Ffamily%3DArchitects%2BDaughter;fontSize=20;swimlaneLine=1;rounded=1;" vertex="1" parent="1">
          <mxGeometry x="60" y="140" width="350" height="560" as="geometry">
            <mxRectangle x="80" y="160" width="120" height="40" as="alternateBounds" />
          </mxGeometry>
        </mxCell>
        <mxCell id="inQ-PklXOitGRCfpAnr--2" value="`docs.arolariu.ro` service domain" style="html=1;whiteSpace=wrap;container=1;recursiveResize=0;collapsible=0;hachureGap=4;fontFamily=Architects Daughter;fontSource=https%3A%2F%2Ffonts.googleapis.com%2Fcss%3Ffamily%3DArchitects%2BDaughter;fontSize=20;glass=0;" vertex="1" parent="inQ-PklXOitGRCfpAnr--1">
          <mxGeometry x="10" y="240" width="330" height="70" as="geometry" />
        </mxCell>
        <mxCell id="inQ-PklXOitGRCfpAnr--3" value="`about.arolariu.ro` service domain" style="html=1;whiteSpace=wrap;container=1;recursiveResize=0;collapsible=0;hachureGap=4;fontFamily=Architects Daughter;fontSource=https%3A%2F%2Ffonts.googleapis.com%2Fcss%3Ffamily%3DArchitects%2BDaughter;fontSize=20;glass=0;" vertex="1" parent="inQ-PklXOitGRCfpAnr--1">
          <mxGeometry x="10" y="320" width="330" height="70" as="geometry" />
        </mxCell>
        <mxCell id="inQ-PklXOitGRCfpAnr--4" value="`itc.arolariu.ro` service domain" style="html=1;whiteSpace=wrap;container=1;recursiveResize=0;collapsible=0;hachureGap=4;fontFamily=Architects Daughter;fontSource=https%3A%2F%2Ffonts.googleapis.com%2Fcss%3Ffamily%3DArchitects%2BDaughter;fontSize=20;glass=0;" vertex="1" parent="inQ-PklXOitGRCfpAnr--1">
          <mxGeometry x="10" y="400" width="330" height="70" as="geometry" />
        </mxCell>
        <mxCell id="inQ-PklXOitGRCfpAnr--5" value="`cv.arolariu.ro` service domain" style="html=1;whiteSpace=wrap;container=1;recursiveResize=0;collapsible=0;hachureGap=4;fontFamily=Architects Daughter;fontSource=https%3A%2F%2Ffonts.googleapis.com%2Fcss%3Ffamily%3DArchitects%2BDaughter;fontSize=20;glass=0;" vertex="1" parent="inQ-PklXOitGRCfpAnr--1">
          <mxGeometry x="10" y="480" width="330" height="70" as="geometry" />
        </mxCell>
        <mxCell id="inQ-PklXOitGRCfpAnr--6" value="`&lt;b&gt;arolariu.ro&lt;/b&gt;` service domain" style="html=1;whiteSpace=wrap;container=1;recursiveResize=0;collapsible=0;hachureGap=4;fontFamily=Architects Daughter;fontSource=https%3A%2F%2Ffonts.googleapis.com%2Fcss%3Ffamily%3DArchitects%2BDaughter;fontSize=20;glass=0;" vertex="1" parent="inQ-PklXOitGRCfpAnr--1">
          <mxGeometry x="10" y="40" width="330" height="70" as="geometry" />
        </mxCell>
        <mxCell id="inQ-PklXOitGRCfpAnr--7" value="`api.arolariu.ro` service domain" style="whiteSpace=wrap;container=1;recursiveResize=0;collapsible=0;hachureGap=4;fontFamily=Architects Daughter;fontSource=https%3A%2F%2Ffonts.googleapis.com%2Fcss%3Ffamily%3DArchitects%2BDaughter;fontSize=20;glass=0;spacingRight=0;spacing=2;labelBackgroundColor=none;labelBorderColor=none;verticalAlign=middle;html=1;spacingTop=0;spacingLeft=0;" vertex="1" parent="inQ-PklXOitGRCfpAnr--1">
          <mxGeometry x="10" y="160" width="330" height="70" as="geometry" />
        </mxCell>
        <mxCell id="inQ-PklXOitGRCfpAnr--9" value="&lt;b&gt;&lt;font data-font-src=&quot;https://fonts.googleapis.com/css?family=Architects+Daughter&quot; face=&quot;Architects Daughter&quot; style=&quot;font-size: 46px;&quot;&gt;OVERVIEW&lt;/font&gt;&lt;/b&gt;" style="text;html=1;strokeColor=none;fillColor=none;align=center;verticalAlign=middle;whiteSpace=wrap;rounded=0;sketch=1;curveFitting=1;jiggle=2;" vertex="1" parent="1">
          <mxGeometry x="55" y="40" width="360" height="80" as="geometry" />
        </mxCell>
        <mxCell id="inQ-PklXOitGRCfpAnr--14" value="Front-facing services" style="swimlane;whiteSpace=wrap;html=1;sketch=1;curveFitting=1;jiggle=2;" vertex="1" parent="1">
          <mxGeometry x="660" y="430" width="1090" height="130" as="geometry">
            <mxRectangle x="620" y="420" width="160" height="30" as="alternateBounds" />
          </mxGeometry>
        </mxCell>
        <mxCell id="inQ-PklXOitGRCfpAnr--8" value="`&lt;b&gt;arolariu.ro&lt;/b&gt;`&amp;nbsp;" style="html=1;whiteSpace=wrap;container=1;recursiveResize=0;collapsible=0;hachureGap=4;fontFamily=Architects Daughter;fontSource=https%3A%2F%2Ffonts.googleapis.com%2Fcss%3Ffamily%3DArchitects%2BDaughter;fontSize=20;glass=0;" vertex="1" parent="inQ-PklXOitGRCfpAnr--14">
          <mxGeometry x="10" y="40" width="160" height="70" as="geometry" />
        </mxCell>
        <mxCell id="inQ-PklXOitGRCfpAnr--15" value="`api.arolariu.ro`&amp;nbsp;" style="html=1;whiteSpace=wrap;container=1;recursiveResize=0;collapsible=0;hachureGap=4;fontFamily=Architects Daughter;fontSource=https%3A%2F%2Ffonts.googleapis.com%2Fcss%3Ffamily%3DArchitects%2BDaughter;fontSize=20;glass=0;" vertex="1" parent="inQ-PklXOitGRCfpAnr--14">
          <mxGeometry x="190" y="40" width="160" height="70" as="geometry" />
        </mxCell>
        <mxCell id="inQ-PklXOitGRCfpAnr--16" value="`docs.arolariu.ro`&amp;nbsp;" style="html=1;whiteSpace=wrap;container=1;recursiveResize=0;collapsible=0;hachureGap=4;fontFamily=Architects Daughter;fontSource=https%3A%2F%2Ffonts.googleapis.com%2Fcss%3Ffamily%3DArchitects%2BDaughter;fontSize=20;glass=0;" vertex="1" parent="inQ-PklXOitGRCfpAnr--14">
          <mxGeometry x="370" y="40" width="160" height="70" as="geometry" />
        </mxCell>
        <mxCell id="inQ-PklXOitGRCfpAnr--17" value="`about.arolariu.ro`&amp;nbsp;" style="html=1;whiteSpace=wrap;container=1;recursiveResize=0;collapsible=0;hachureGap=4;fontFamily=Architects Daughter;fontSource=https%3A%2F%2Ffonts.googleapis.com%2Fcss%3Ffamily%3DArchitects%2BDaughter;fontSize=20;glass=0;" vertex="1" parent="inQ-PklXOitGRCfpAnr--14">
          <mxGeometry x="550" y="40" width="160" height="70" as="geometry" />
        </mxCell>
        <mxCell id="inQ-PklXOitGRCfpAnr--18" value="`itc.arolariu.ro`&amp;nbsp;" style="html=1;whiteSpace=wrap;container=1;recursiveResize=0;collapsible=0;hachureGap=4;fontFamily=Architects Daughter;fontSource=https%3A%2F%2Ffonts.googleapis.com%2Fcss%3Ffamily%3DArchitects%2BDaughter;fontSize=20;glass=0;" vertex="1" parent="inQ-PklXOitGRCfpAnr--14">
          <mxGeometry x="730" y="40" width="160" height="70" as="geometry" />
        </mxCell>
        <mxCell id="inQ-PklXOitGRCfpAnr--19" value="`cv.arolariu.ro`&amp;nbsp;" style="html=1;whiteSpace=wrap;container=1;recursiveResize=0;collapsible=0;hachureGap=4;fontFamily=Architects Daughter;fontSource=https%3A%2F%2Ffonts.googleapis.com%2Fcss%3Ffamily%3DArchitects%2BDaughter;fontSize=20;glass=0;" vertex="1" parent="inQ-PklXOitGRCfpAnr--14">
          <mxGeometry x="910" y="40" width="160" height="70" as="geometry" />
        </mxCell>
        <mxCell id="inQ-PklXOitGRCfpAnr--22" value="" style="group" vertex="1" connectable="0" parent="1">
          <mxGeometry x="1050" y="50" width="265" height="140" as="geometry" />
        </mxCell>
        <mxCell id="inQ-PklXOitGRCfpAnr--21" value="" style="shape=trapezoid;perimeter=trapezoidPerimeter;whiteSpace=wrap;html=1;fixedSize=1;" vertex="1" parent="inQ-PklXOitGRCfpAnr--22">
          <mxGeometry width="265" height="140" as="geometry" />
        </mxCell>
        <mxCell id="inQ-PklXOitGRCfpAnr--11" value="Customer" style="shape=umlActor;verticalLabelPosition=bottom;verticalAlign=top;html=1;outlineConnect=0;" vertex="1" parent="inQ-PklXOitGRCfpAnr--22">
          <mxGeometry x="47.5" y="30" width="30" height="60" as="geometry" />
        </mxCell>
        <mxCell id="inQ-PklXOitGRCfpAnr--12" value="Customer" style="shape=umlActor;verticalLabelPosition=bottom;verticalAlign=top;html=1;outlineConnect=0;" vertex="1" parent="inQ-PklXOitGRCfpAnr--22">
          <mxGeometry x="177.5" y="30" width="30" height="60" as="geometry" />
        </mxCell>
        <mxCell id="inQ-PklXOitGRCfpAnr--13" value="Customer" style="shape=umlActor;verticalLabelPosition=bottom;verticalAlign=top;html=1;outlineConnect=0;" vertex="1" parent="inQ-PklXOitGRCfpAnr--22">
          <mxGeometry x="117.5" y="30" width="30" height="60" as="geometry" />
        </mxCell>
        <mxCell id="inQ-PklXOitGRCfpAnr--28" value="" style="shape=flexArrow;endArrow=classic;html=1;rounded=0;" edge="1" parent="1">
          <mxGeometry width="50" height="50" relative="1" as="geometry">
            <mxPoint x="1180" y="190" as="sourcePoint" />
            <mxPoint x="1180" y="420" as="targetPoint" />
          </mxGeometry>
        </mxCell>
      </root>
    </mxGraphModel>
  </diagram>
  <diagram id="19Lkyk50ssVg3xA2qnSb" name="Workers High Level Architecture Overview">
    <mxGraphModel dx="1434" dy="836" grid="1" gridSize="10" guides="1" tooltips="1" connect="1" arrows="1" fold="1" page="1" pageScale="1" pageWidth="850" pageHeight="1100" math="0" shadow="0">
      <root>
        <mxCell id="0" />
        <mxCell id="1" parent="0" />
      </root>
    </mxGraphModel>
  </diagram>
</mxfile>
